<svg width="40" height="41" viewBox="0 0 40 41" fill="none" xmlns="http://www.w3.org/2000/svg">
<path d="M0.320312 3.89307C0.109375 3.58057 0 3.20557 0 2.83057C0 1.76807 0.859375 0.908691 1.92188 0.908691H10.4609C11.3359 0.908691 12.1562 1.36963 12.6016 2.11963L17.9531 11.0337C14.1875 11.5103 10.8203 13.2681 8.3125 15.8696L0.320312 3.89307ZM39.6719 3.89307L31.6875 15.8696C29.1797 13.2681 25.8125 11.5103 22.0469 11.0337L27.3984 2.11963C27.8516 1.36963 28.6641 0.908691 29.5391 0.908691H38.0781C39.1406 0.908691 40 1.76807 40 2.83057C40 3.20557 39.8906 3.58057 39.6797 3.89307H39.6719ZM6.25 27.1587C6.25 23.512 7.69866 20.0146 10.2773 17.436C12.8559 14.8573 16.3533 13.4087 20 13.4087C23.6467 13.4087 27.1441 14.8573 29.7227 17.436C32.3013 20.0146 33.75 23.512 33.75 27.1587C33.75 30.8054 32.3013 34.3028 29.7227 36.8814C27.1441 39.46 23.6467 40.9087 20 40.9087C16.3533 40.9087 12.8559 39.46 10.2773 36.8814C7.69866 34.3028 6.25 30.8054 6.25 27.1587ZM20.6562 19.7446C20.3906 19.1978 19.6172 19.1978 19.3438 19.7446L17.5938 23.2915C17.4844 23.5103 17.2812 23.6587 17.0469 23.6899L13.125 24.2603C12.5234 24.3462 12.2891 25.0806 12.7188 25.5103L15.5547 28.2759C15.7266 28.4478 15.8047 28.6821 15.7656 28.9243L15.0938 32.8228C14.9922 33.4165 15.6172 33.8774 16.1562 33.5962L19.6562 31.7524C19.8672 31.6431 20.125 31.6431 20.3359 31.7524L23.8359 33.5962C24.375 33.8774 25 33.4243 24.8984 32.8228L24.2266 28.9243C24.1875 28.6899 24.2656 28.4478 24.4375 28.2759L27.2734 25.5103C27.7109 25.0884 27.4688 24.354 26.8672 24.2603L22.9531 23.6899C22.7188 23.6587 22.5078 23.5024 22.4062 23.2915L20.6562 19.7446Z" fill="#992C18"/>
<path d="M20.6562 19.7446C20.3906 19.1978 19.6172 19.1978 19.3438 19.7446L17.5938 23.2915C17.4844 23.5103 17.2812 23.6587 17.0469 23.6899L13.125 24.2603C12.5234 24.3462 12.2891 25.0806 12.7188 25.5103L15.5547 28.2759C15.7266 28.4478 15.8047 28.6821 15.7656 28.9243L15.0938 32.8228C14.9922 33.4165 15.6172 33.8774 16.1562 33.5962L19.6562 31.7524C19.8672 31.6431 20.125 31.6431 20.3359 31.7524L23.8359 33.5962C24.375 33.8774 25 33.4243 24.8984 32.8228L24.2266 28.9243C24.1875 28.6899 24.2656 28.4478 24.4375 28.2759L27.2734 25.5103C27.7109 25.0884 27.4688 24.354 26.8672 24.2603L22.9531 23.6899C22.7188 23.6587 22.5078 23.5024 22.4062 23.2915L20.6562 19.7446Z" fill="#992C18"/>
<path d="M19.9068 34.1007C19.2561 34.1007 18.6374 33.9834 18.0508 33.7487C17.4748 33.5034 16.9788 33.162 16.5628 32.7247C16.1574 32.2767 15.8801 31.7487 15.7308 31.1407L17.6348 30.4687C17.8268 31.0127 18.1201 31.4287 18.5148 31.7167C18.9094 31.994 19.3734 32.1327 19.9068 32.1327C20.3334 32.1327 20.7014 32.0527 21.0108 31.8927C21.3308 31.7327 21.5814 31.5034 21.7628 31.2047C21.9441 30.8954 22.0348 30.5327 22.0348 30.1167C22.0348 29.7007 21.9441 29.3487 21.7628 29.0607C21.5921 28.762 21.3468 28.5327 21.0268 28.3727C20.7068 28.2127 20.3281 28.1327 19.8908 28.1327C19.6881 28.1327 19.4748 28.154 19.2508 28.1967C19.0374 28.2394 18.8454 28.3034 18.6748 28.3887L18.1788 27.3487L21.2668 23.8287H16.4028V21.9887H23.7148V23.7007L20.6108 27.3327L20.6428 26.5167C21.3574 26.5274 21.9814 26.682 22.5148 26.9807C23.0481 27.2794 23.4641 27.69 23.7628 28.2127C24.0614 28.7354 24.2108 29.3487 24.2108 30.0527C24.2108 30.8207 24.0241 31.514 23.6508 32.1327C23.2774 32.7407 22.7654 33.2207 22.1148 33.5727C21.4641 33.9247 20.7281 34.1007 19.9068 34.1007Z" fill="white"/>
</svg>
