<svg width="43" height="44" viewBox="0 0 43 44" fill="none" xmlns="http://www.w3.org/2000/svg">
<path d="M21.5 0.543945C9.52143 0.543945 0 10.1646 0 22.2681C0 34.3715 9.52143 43.9922 21.5 43.9922C33.4786 43.9922 43 34.3715 43 22.2681C43 10.1646 33.4786 0.543945 21.5 0.543945ZM29.7929 33.1301L21.5 24.7508L13.2071 33.1301L10.75 30.6474L19.0429 22.2681L10.75 13.8888L13.2071 11.406L21.5 19.7853L29.7929 11.406L32.25 13.8888L23.9571 22.2681L32.25 30.6474L29.7929 33.1301Z" fill="#FF4A26"/>
<path d="M29.7929 33.1301L21.5 24.7508L13.2071 33.1301L10.75 30.6474L19.0429 22.2681L10.75 13.8888L13.2071 11.406L21.5 19.7853L29.7929 11.406L32.25 13.8888L23.9571 22.2681L32.25 30.6474L29.7929 33.1301Z" fill="white"/>
</svg>
