<svg width="18" height="17" viewBox="0 0 18 17" fill="none" xmlns="http://www.w3.org/2000/svg">
<path d="M18 7.37901C18 8.54419 17.5982 9.62064 16.7946 10.6084C15.9911 11.5961 14.8996 12.3762 13.5201 12.9488C12.1406 13.5213 10.6339 13.8076 9 13.8076C8.53125 13.8076 8.04576 13.7808 7.54353 13.7272C6.21763 14.8991 4.67746 15.7094 2.92299 16.158C2.59487 16.2518 2.21317 16.3254 1.7779 16.379C1.66406 16.3924 1.56194 16.3623 1.47154 16.2886C1.38114 16.2149 1.32254 16.1179 1.29576 15.9973V15.9873C1.27567 15.9605 1.274 15.9203 1.29074 15.8667C1.30748 15.8132 1.31417 15.7797 1.31083 15.7663C1.30748 15.7529 1.32254 15.7211 1.35603 15.6709L1.41629 15.5805L1.48661 15.4951L1.56696 15.4047C1.61384 15.3511 1.71763 15.2356 1.87835 15.0581C2.03906 14.8807 2.15458 14.7535 2.22489 14.6764C2.2952 14.5994 2.399 14.4672 2.53627 14.2797C2.67355 14.0922 2.78237 13.9214 2.86272 13.7674C2.94308 13.6134 3.03348 13.4158 3.13393 13.1748C3.23438 12.9337 3.32143 12.6792 3.39509 12.4114C2.34375 11.8154 1.51507 11.0788 0.90904 10.2016C0.303013 9.32432 0 8.38348 0 7.37901C0 6.50848 0.237723 5.67644 0.71317 4.88292C1.18862 4.08939 1.82812 3.40468 2.6317 2.82879C3.43527 2.25289 4.39286 1.79586 5.50446 1.45769C6.61607 1.11952 7.78125 0.950439 9 0.950439C10.6339 0.950439 12.1406 1.23671 13.5201 1.80926C14.8996 2.3818 15.9911 3.16194 16.7946 4.14966C17.5982 5.13738 18 6.21383 18 7.37901Z" fill="#FCD567"/>
</svg>
