<svg width="40" height="41" viewBox="0 0 40 41" fill="none" xmlns="http://www.w3.org/2000/svg">
<path d="M0.320312 3.89307C0.109375 3.58057 0 3.20557 0 2.83057C0 1.76807 0.859375 0.908691 1.92188 0.908691H10.4609C11.3359 0.908691 12.1562 1.36963 12.6016 2.11963L17.9531 11.0337C14.1875 11.5103 10.8203 13.2681 8.3125 15.8696L0.320312 3.89307ZM39.6719 3.89307L31.6875 15.8696C29.1797 13.2681 25.8125 11.5103 22.0469 11.0337L27.3984 2.11963C27.8516 1.36963 28.6641 0.908691 29.5391 0.908691H38.0781C39.1406 0.908691 40 1.76807 40 2.83057C40 3.20557 39.8906 3.58057 39.6797 3.89307H39.6719ZM6.25 27.1587C6.25 23.512 7.69866 20.0146 10.2773 17.436C12.8559 14.8573 16.3533 13.4087 20 13.4087C23.6467 13.4087 27.1441 14.8573 29.7227 17.436C32.3013 20.0146 33.75 23.512 33.75 27.1587C33.75 30.8054 32.3013 34.3028 29.7227 36.8814C27.1441 39.46 23.6467 40.9087 20 40.9087C16.3533 40.9087 12.8559 39.46 10.2773 36.8814C7.69866 34.3028 6.25 30.8054 6.25 27.1587ZM20.6562 19.7446C20.3906 19.1978 19.6172 19.1978 19.3438 19.7446L17.5938 23.2915C17.4844 23.5103 17.2812 23.6587 17.0469 23.6899L13.125 24.2603C12.5234 24.3462 12.2891 25.0806 12.7188 25.5103L15.5547 28.2759C15.7266 28.4478 15.8047 28.6821 15.7656 28.9243L15.0938 32.8228C14.9922 33.4165 15.6172 33.8774 16.1562 33.5962L19.6562 31.7524C19.8672 31.6431 20.125 31.6431 20.3359 31.7524L23.8359 33.5962C24.375 33.8774 25 33.4243 24.8984 32.8228L24.2266 28.9243C24.1875 28.6899 24.2656 28.4478 24.4375 28.2759L27.2734 25.5103C27.7109 25.0884 27.4688 24.354 26.8672 24.2603L22.9531 23.6899C22.7188 23.6587 22.5078 23.5024 22.4062 23.2915L20.6562 19.7446Z" fill="#F2A100"/>
<path d="M20.6562 19.7446C20.3906 19.1978 19.6172 19.1978 19.3438 19.7446L17.5938 23.2915C17.4844 23.5103 17.2812 23.6587 17.0469 23.6899L13.125 24.2603C12.5234 24.3462 12.2891 25.0806 12.7188 25.5103L15.5547 28.2759C15.7266 28.4478 15.8047 28.6821 15.7656 28.9243L15.0938 32.8228C14.9922 33.4165 15.6172 33.8774 16.1562 33.5962L19.6562 31.7524C19.8672 31.6431 20.125 31.6431 20.3359 31.7524L23.8359 33.5962C24.375 33.8774 25 33.4243 24.8984 32.8228L24.2266 28.9243C24.1875 28.6899 24.2656 28.4478 24.4375 28.2759L27.2734 25.5103C27.7109 25.0884 27.4688 24.354 26.8672 24.2603L22.9531 23.6899C22.7188 23.6587 22.5078 23.5024 22.4062 23.2915L20.6562 19.7446Z" fill="#F2A100"/>
<path d="M19.3149 33.9087V23.8447H17.0109V21.9887H21.4909V33.9087H19.3149Z" fill="white"/>
</svg>
