<svg width="40" height="41" viewBox="0 0 40 41" fill="none" xmlns="http://www.w3.org/2000/svg">
<path d="M19.9 32.834C20.6 32.834 21.192 32.592 21.676 32.108C22.16 31.624 22.4013 31.0327 22.4 30.334C22.3987 29.6353 22.1573 29.0433 21.676 28.558C21.1947 28.0727 20.6027 27.8313 19.9 27.834C19.1973 27.8367 18.606 28.0787 18.126 28.56C17.646 29.0413 17.404 29.6327 17.4 30.334C17.396 31.0353 17.638 31.6273 18.126 32.11C18.614 32.5927 19.2053 32.834 19.9 32.834ZM18.1 25.134H21.8C21.8 24.034 21.9253 23.1673 22.176 22.534C22.4267 21.9007 23.1347 21.034 24.3 19.934C25.1667 19.0673 25.85 18.242 26.35 17.458C26.85 16.674 27.1 15.7327 27.1 14.634C27.1 12.7673 26.4167 11.334 25.05 10.334C23.6833 9.33399 22.0667 8.83399 20.2 8.83399C18.3 8.83399 16.7587 9.33399 15.576 10.334C14.3933 11.334 13.568 12.534 13.1 13.934L16.4 15.234C16.5667 14.634 16.942 13.984 17.526 13.284C18.11 12.584 19.0013 12.234 20.2 12.234C21.2667 12.234 22.0667 12.526 22.6 13.11C23.1333 13.694 23.4 14.3353 23.4 15.034C23.4 15.7007 23.2 16.326 22.8 16.91C22.4 17.494 21.9 18.0353 21.3 18.534C19.8333 19.834 18.9333 20.8173 18.6 21.484C18.2667 22.1507 18.1 23.3673 18.1 25.134ZM20 40.834C17.2333 40.834 14.6333 40.3093 12.2 39.26C9.76667 38.2107 7.65 36.7853 5.85 34.984C4.05 33.1827 2.62534 31.066 1.576 28.634C0.526669 26.202 0.00133587 23.602 2.53164e-06 20.834C-0.0013308 18.066 0.524003 15.466 1.576 13.034C2.628 10.602 4.05267 8.48533 5.85 6.68399C7.64734 4.88266 9.764 3.45799 12.2 2.40999C14.636 1.36199 17.236 0.836661 20 0.833994C22.764 0.831328 25.364 1.35666 27.8 2.40999C30.236 3.46333 32.3527 4.88799 34.15 6.68399C35.9473 8.47999 37.3727 10.5967 38.426 13.034C39.4793 15.4713 40.004 18.0713 40 20.834C39.996 23.5967 39.4707 26.1967 38.424 28.634C37.3773 31.0713 35.9527 33.188 34.15 34.984C32.3473 36.78 30.2307 38.2053 27.8 39.26C25.3693 40.3147 22.7693 40.8393 20 40.834Z" fill="#F2A100"/>
</svg>
