<svg width="14" height="15" viewBox="0 0 14 15" fill="none" xmlns="http://www.w3.org/2000/svg">
<path d="M6.99965 12.7898C7.66183 12.7898 8.26662 12.7156 8.81821 12.5872L7.58834 11.3202C7.39724 11.3353 7.20335 11.3476 6.99965 11.3476C3.25404 11.3476 1.80297 8.57413 1.45158 7.74194C1.71544 7.13533 2.0718 6.57612 2.50716 6.08551L1.52858 5.07737C0.452004 6.27949 0.0439133 7.49027 0.0362135 7.51407C-0.0120712 7.66216 -0.0120712 7.82245 0.0362135 7.97054C0.0509131 8.01814 1.65668 12.7898 6.99965 12.7898ZM6.99965 2.69404C5.71378 2.69404 4.65751 2.97961 3.77693 3.40147L1.19469 0.741943L0.20491 1.76162L12.8046 14.7419L13.7944 13.7223L11.4711 11.3288C13.3009 9.92192 13.954 8.00083 13.9638 7.97054C14.0121 7.82245 14.0121 7.66216 13.9638 7.51407C13.9484 7.46575 12.3426 2.69404 6.99965 2.69404ZM10.48 10.3077L8.88401 8.66355C9.017 8.3823 9.0996 8.07294 9.0996 7.74194C9.0996 6.55857 8.14832 5.57856 6.99965 5.57856C6.67836 5.57856 6.37806 5.66365 6.10577 5.80138L4.8402 4.49758C5.53495 4.25198 6.26516 4.12981 6.99965 4.1363C10.7453 4.1363 12.1963 6.90976 12.5477 7.74194C12.3363 8.24096 11.7315 9.43083 10.48 10.3077Z" fill="white"/>
</svg>
