<svg width="74" height="75" viewBox="0 0 74 75" fill="none" xmlns="http://www.w3.org/2000/svg">
<path d="M37 13.7593C32.5444 13.7593 28.2712 15.5293 25.1206 18.6799C21.97 21.8305 20.2 26.1036 20.2 30.5593C20.2 36.2713 23.056 41.2873 27.4 44.3353V49.7593C27.4 50.3958 27.6529 51.0062 28.103 51.4563C28.553 51.9064 29.1635 52.1593 29.8 52.1593H44.2C44.8365 52.1593 45.447 51.9064 45.8971 51.4563C46.3472 51.0062 46.6 50.3958 46.6 49.7593V44.3353C50.944 41.2873 53.8 36.2713 53.8 30.5593C53.8 26.1036 52.03 21.8305 48.8794 18.6799C45.7288 15.5293 41.4556 13.7593 37 13.7593ZM29.8 59.3593C29.8 59.9958 30.0529 60.6063 30.503 61.0563C30.953 61.5064 31.5635 61.7593 32.2 61.7593H41.8C42.4365 61.7593 43.047 61.5064 43.4971 61.0563C43.9472 60.6063 44.2 59.9958 44.2 59.3593V56.9593H29.8V59.3593Z" fill="#F2A100"/>
</svg>
