<svg width="18" height="16" viewBox="0 0 18 16" fill="none" xmlns="http://www.w3.org/2000/svg">
<path d="M17.25 7.16626C17.25 6.76844 17.092 6.3869 16.8107 6.1056C16.5294 5.8243 16.1478 5.66626 15.75 5.66626H11.01L11.73 2.23876C11.745 2.16376 11.7525 2.08126 11.7525 1.99876C11.7525 1.69126 11.625 1.40626 11.4225 1.20376L10.6275 0.41626L5.6925 5.35126C5.415 5.62876 5.25 6.00376 5.25 6.41626V13.9163C5.25 14.3141 5.40804 14.6956 5.68934 14.9769C5.97064 15.2582 6.35218 15.4163 6.75 15.4163H13.5C14.1225 15.4163 14.655 15.0413 14.88 14.5013L17.145 9.21376C17.2125 9.04126 17.25 8.86126 17.25 8.66626V7.16626ZM0.75 15.4163H3.75V6.41626H0.75V15.4163Z" fill="#FCD567"/>
</svg>
