<svg width="74" height="75" viewBox="0 0 74 75" fill="none" xmlns="http://www.w3.org/2000/svg">
<path d="M36.7305 16.4361L36.9699 16.4214L37.2177 16.4361L37.3416 16.4529L37.4697 16.4802L37.7028 16.5516C37.8638 16.6111 38.0168 16.6901 38.1585 16.7868L38.3769 16.959L38.9124 17.4168C43.1488 20.9355 48.5028 22.8249 54.0093 22.7445L54.7275 22.7235C55.1971 22.7021 55.6602 22.8388 56.0429 23.1118C56.4255 23.3848 56.7055 23.7782 56.838 24.2292C57.8699 27.7395 58.1857 31.4214 57.7666 35.0562C57.3474 38.6909 56.2019 42.2044 54.3981 45.3877C52.5943 48.571 50.169 51.3592 47.2663 53.5867C44.3637 55.8142 41.0429 57.4354 37.5012 58.3542C37.1555 58.4438 36.7927 58.4438 36.447 58.3542C32.9052 57.4357 29.5842 55.8146 26.6813 53.5872C23.7784 51.3598 21.3528 48.5716 19.5488 45.3883C17.7448 42.2049 16.5991 38.6914 16.1798 35.0566C15.7605 31.4217 16.0762 27.7396 17.1081 24.2292C17.2407 23.7782 17.5207 23.3848 17.9033 23.1118C18.2859 22.8388 18.7491 22.7021 19.2186 22.7235C24.9673 22.9863 30.6071 21.0939 35.0337 17.4168L35.586 16.9443L35.7876 16.7868C35.9294 16.6901 36.0824 16.6111 36.2433 16.5516L36.4785 16.4802C36.5609 16.4605 36.6464 16.4457 36.7305 16.4361Z" fill="#F2A100"/>
</svg>
