<svg width="40" height="41" viewBox="0 0 40 41" fill="none" xmlns="http://www.w3.org/2000/svg">
<path d="M0.320312 3.89307C0.109375 3.58057 0 3.20557 0 2.83057C0 1.76807 0.859375 0.908691 1.92188 0.908691H10.4609C11.3359 0.908691 12.1562 1.36963 12.6016 2.11963L17.9531 11.0337C14.1875 11.5103 10.8203 13.2681 8.3125 15.8696L0.320312 3.89307ZM39.6719 3.89307L31.6875 15.8696C29.1797 13.2681 25.8125 11.5103 22.0469 11.0337L27.3984 2.11963C27.8516 1.36963 28.6641 0.908691 29.5391 0.908691H38.0781C39.1406 0.908691 40 1.76807 40 2.83057C40 3.20557 39.8906 3.58057 39.6797 3.89307H39.6719ZM6.25 27.1587C6.25 23.512 7.69866 20.0146 10.2773 17.436C12.8559 14.8573 16.3533 13.4087 20 13.4087C23.6467 13.4087 27.1441 14.8573 29.7227 17.436C32.3013 20.0146 33.75 23.512 33.75 27.1587C33.75 30.8054 32.3013 34.3028 29.7227 36.8814C27.1441 39.46 23.6467 40.9087 20 40.9087C16.3533 40.9087 12.8559 39.46 10.2773 36.8814C7.69866 34.3028 6.25 30.8054 6.25 27.1587ZM20.6562 19.7446C20.3906 19.1978 19.6172 19.1978 19.3438 19.7446L17.5938 23.2915C17.4844 23.5103 17.2812 23.6587 17.0469 23.6899L13.125 24.2603C12.5234 24.3462 12.2891 25.0806 12.7188 25.5103L15.5547 28.2759C15.7266 28.4478 15.8047 28.6821 15.7656 28.9243L15.0938 32.8228C14.9922 33.4165 15.6172 33.8774 16.1562 33.5962L19.6562 31.7524C19.8672 31.6431 20.125 31.6431 20.3359 31.7524L23.8359 33.5962C24.375 33.8774 25 33.4243 24.8984 32.8228L24.2266 28.9243C24.1875 28.6899 24.2656 28.4478 24.4375 28.2759L27.2734 25.5103C27.7109 25.0884 27.4688 24.354 26.8672 24.2603L22.9531 23.6899C22.7188 23.6587 22.5078 23.5024 22.4062 23.2915L20.6562 19.7446Z" fill="#899095"/>
<path d="M20.6562 19.7446C20.3906 19.1978 19.6172 19.1978 19.3438 19.7446L17.5938 23.2915C17.4844 23.5103 17.2812 23.6587 17.0469 23.6899L13.125 24.2603C12.5234 24.3462 12.2891 25.0806 12.7188 25.5103L15.5547 28.2759C15.7266 28.4478 15.8047 28.6821 15.7656 28.9243L15.0938 32.8228C14.9922 33.4165 15.6172 33.8774 16.1562 33.5962L19.6562 31.7524C19.8672 31.6431 20.125 31.6431 20.3359 31.7524L23.8359 33.5962C24.375 33.8774 25 33.4243 24.8984 32.8228L24.2266 28.9243C24.1875 28.6899 24.2656 28.4478 24.4375 28.2759L27.2734 25.5103C27.7109 25.0884 27.4688 24.354 26.8672 24.2603L22.9531 23.6899C22.7188 23.6587 22.5078 23.5024 22.4062 23.2915L20.6562 19.7446Z" fill="#899095"/>
<path d="M16.1891 32.9087V31.2607L19.4211 27.8847C20.0611 27.2127 20.5518 26.6794 20.8931 26.2847C21.2451 25.8794 21.4905 25.5327 21.6291 25.2447C21.7678 24.9567 21.8371 24.6634 21.8371 24.3647C21.8371 23.8634 21.6771 23.4687 21.3571 23.1807C21.0478 22.8927 20.6478 22.7487 20.1571 22.7487C19.6451 22.7487 19.2025 22.898 18.8291 23.1967C18.4558 23.4847 18.1838 23.9114 18.0131 24.4767L16.1091 23.8847C16.2371 23.2554 16.4985 22.7114 16.8931 22.2527C17.2878 21.7834 17.7678 21.426 18.3331 21.1807C18.9091 20.9247 19.5171 20.7967 20.1571 20.7967C20.9251 20.7967 21.5971 20.9354 22.1731 21.2127C22.7598 21.49 23.2131 21.8794 23.5331 22.3807C23.8638 22.882 24.0291 23.4687 24.0291 24.1407C24.0291 24.5674 23.9491 24.9887 23.7891 25.4047C23.6291 25.8207 23.3891 26.2474 23.0691 26.6847C22.7491 27.1114 22.3331 27.5914 21.8211 28.1247L19.0211 31.0687H24.1891V32.9087H16.1891Z" fill="white"/>
</svg>
