<svg width="38" height="39" viewBox="0 0 38 39" fill="none" xmlns="http://www.w3.org/2000/svg">
<g clip-path="url(#clip0_30_2224)">
<path d="M32.038 9.90292C32.722 8.01084 30.8885 6.17734 28.9965 6.86292L5.87188 15.2261C3.97346 15.9133 3.74388 18.5036 5.49029 19.5153L12.8718 23.7888L19.4632 17.1973C19.7618 16.9089 20.1618 16.7493 20.5769 16.7529C20.9921 16.7565 21.3892 16.9231 21.6828 17.2166C21.9763 17.5102 22.1428 17.9073 22.1464 18.3225C22.1501 18.7376 21.9905 19.1375 21.702 19.4362L15.1106 26.0276L19.3856 33.4091C20.3958 35.1555 22.9861 34.9243 23.6733 33.0275L32.038 9.90292Z" fill="#FCD567"/>
</g>
<defs>
<clipPath id="clip0_30_2224">
<rect width="38" height="38" fill="white" transform="translate(0 0.899902)"/>
</clipPath>
</defs>
</svg>
