<svg width="43" height="45" viewBox="0 0 43 45" fill="none" xmlns="http://www.w3.org/2000/svg">
<path d="M21.5 0.543945C9.52143 0.543945 0 10.1646 0 22.2681C0 34.3715 9.52143 43.9922 21.5 43.9922C33.4786 43.9922 43 34.3715 43 22.2681C43 10.1646 33.4786 0.543945 21.5 0.543945ZM29.7929 33.1301L21.5 24.7508L13.2071 33.1301L10.75 30.6474L19.0429 22.2681L10.75 13.8888L13.2071 11.406L21.5 19.7853L29.7929 11.406L32.25 13.8888L23.9571 22.2681L32.25 30.6474L29.7929 33.1301Z" fill="#53B233"/>
<path d="M29.7929 33.1301L21.5 24.7508L13.2071 33.1301L10.75 30.6474L19.0429 22.2681L10.75 13.8888L13.2071 11.406L21.5 19.7853L29.7929 11.406L32.25 13.8888L23.9571 22.2681L32.25 30.6474L29.7929 33.1301Z" fill="#53B233"/>
<path fill-rule="evenodd" clip-rule="evenodd" d="M17.9135 35L26.2064 26.6207L28.6635 24.138L36.9564 15.7587L34.4993 13.2759L17.9138 30.0345L9.6209 21.6552L7.1638 24.138L15.4564 32.5173L17.9135 35Z" fill="white"/>
</svg>
