<svg width="25" height="25" viewBox="0 0 25 25" fill="none" xmlns="http://www.w3.org/2000/svg">
<path d="M0.125 24.875V19.0312L18.275 0.915625C18.55 0.663542 18.8539 0.46875 19.1866 0.33125C19.5194 0.19375 19.8686 0.125 20.2344 0.125C20.6001 0.125 20.9553 0.19375 21.3 0.33125C21.6447 0.46875 21.9426 0.675 22.1937 0.95L24.0844 2.875C24.3594 3.12708 24.5601 3.425 24.6866 3.76875C24.8131 4.1125 24.8759 4.45625 24.875 4.8C24.875 5.16667 24.8122 5.51638 24.6866 5.84912C24.561 6.18188 24.3603 6.48529 24.0844 6.75937L5.96875 24.875H0.125ZM20.2 6.725L22.125 4.8L20.2 2.875L18.275 4.8L20.2 6.725Z" fill="#F2A100"/>
</svg>
